<?xml version="1.0" encoding="UTF-8"?>
<svg id="Calque_1" data-name="Calque 1" xmlns="http://www.w3.org/2000/svg" viewBox="0 0 1080 428">
  <defs>
    <style>
      .cls-1 {
        fill: #4fd;
      }
    </style>
  </defs>
  <g>
    <path class="cls-1" d="M511.65,9.01h17l-23.37,87.23h22.25l-4.3,16.05h-39.25l27.67-103.28Z"/>
    <path class="cls-1" d="M557.41,9.01h38.61l-4.34,16.21h-21.61l-7.58,28.28h15.89l-4.22,15.73h-15.89l-7.24,27.01h21.61l-4.3,16.05h-38.61l27.67-103.28Z"/>
  </g>
  <g>
    <g>
      <path class="cls-1" d="M123.33,369.37c-8.61,32.11-25.81,49.62-53.33,49.62H29.54c-23.77,0-35.37-15.85-26.65-48.37l11.4-42.54h44.2l-13.07,48.79h31.69l14.75-55.04-44.42-45.87c-11.38-10.42-14.15-18.76-8.56-39.61l12.07-45.04c8.38-31.28,24.97-43.37,52.49-43.37h36.7c31.69,0,38.96,13.34,29.8,47.54l-10.39,38.78h-44.2l11.73-43.79h-31.69l-12.52,46.71,44.23,45.03c12.22,10.43,14.57,18.77,8.98,39.62l-12.74,47.54Z"/>
      <path class="cls-1" d="M228.8,190.47h-41.7l11.4-42.53h127.61l-11.4,42.53h-40.87l-61.23,228.52h-45.04l61.23-228.52Z"/>
      <path class="cls-1" d="M468.71,147.94l-59.33,221.43c-8.72,32.53-26.23,49.62-53.33,49.62h-45.45c-23.77,0-35.48-15.43-26.88-47.54l59.89-223.51h44.62l-61.34,228.93h36.28l61.34-228.93h44.2Z"/>
      <path class="cls-1" d="M496.64,147.94h84.65c30.86,0,33.42,20.01,24.71,52.54l-45.37,169.3c-6.7,25.02-22.78,49.21-55.31,49.21h-81.32l72.63-271.05ZM514.11,376.87l49.94-186.4h-34.19l-49.94,186.4h34.19Z"/>
    </g>
    <path class="cls-1" d="M905.13,371.45l47.37-176.81c8.04-30.02,27.94-46.7,52.13-46.7h42.12c29.61,0,38.71,15.84,30.21,47.54l-46.59,173.89c-8.72,32.53-26.64,49.62-54.17,49.62h-44.2c-23.77,0-35.48-15.43-26.88-47.54ZM985.41,376.87l49.94-186.4h-38.78l-49.95,186.4h38.78Z"/>
    <g>
      <path class="cls-1" d="M811.34,266.53l-99.27-118.38c-.33-.4-.83-.63-1.35-.63h-85.19c-1.49,0-2.31,1.74-1.35,2.89l145.15,172.98c.33.4.83.63,1.35.63h39.25c.52,0,1.01-.23,1.35-.63l44.78-53.34c.96-1.14.15-2.89-1.35-2.89h-42.03c-.52,0-1.01-.23-1.35-.63Z"/>
      <path class="cls-1" d="M847.95,148.14l-45.85,54.65c-.95,1.13-.14,2.85,1.33,2.85h60.21c29.24,0,56.78-12.85,75.57-35.24l16.81-20.03c.95-1.13.14-2.85-1.33-2.85h-105.41c-.51,0-1,.23-1.33.62Z"/>
      <path class="cls-1" d="M671.93,361.49l-45.85,54.65c-.95,1.13-.14,2.85,1.33,2.85h60.21c29.24,0,56.78-12.85,75.57-35.24l16.81-20.02c.95-1.13.14-2.85-1.33-2.85h-105.4c-.51,0-1,.23-1.33.62Z"/>
    </g>
  </g>
</svg>