<?xml version="1.0" encoding="UTF-8"?>
<svg id="Calque_1" data-name="Calque 1" xmlns="http://www.w3.org/2000/svg" viewBox="0 0 356 302">
  <defs>
    <style>
      .cls-1 {
        fill: #4fd;
      }
    </style>
  </defs>
  <path class="cls-1" d="M199.24,134.27L99.97,15.89c-.33-.4-.83-.63-1.35-.63H13.43c-1.49,0-2.31,1.74-1.35,2.89l145.15,172.98c.33.4.83.63,1.35.63h39.25c.52,0,1.01-.23,1.35-.63l44.78-53.34c.96-1.14.15-2.89-1.35-2.89h-42.03c-.52,0-1.01-.23-1.35-.63Z"/>
  <path class="cls-1" d="M235.86,15.88l-45.85,54.65c-.95,1.13-.14,2.85,1.33,2.85h60.21c29.24,0,56.78-12.85,75.57-35.24l16.81-20.03c.95-1.13.14-2.85-1.33-2.85h-105.41c-.51,0-1,.23-1.33.62Z"/>
  <path class="cls-1" d="M59.84,229.24l-45.85,54.65c-.95,1.13-.14,2.85,1.33,2.85h60.21c29.24,0,56.78-12.85,75.57-35.24l16.81-20.02c.95-1.13.14-2.85-1.33-2.85H61.17c-.51,0-1,.23-1.33.62Z"/>
</svg>